<svg xmlns="http://www.w3.org/2000/svg"  width="40" height="40" viewBox="0 0 40 40"><defs><style>.a,.c{fill:none;}.b{fill:#fff;}.c{stroke:#fff;opacity:0.4;}.d{stroke:none;}</style></defs><g transform="translate(10 10)"><rect class="a" width="20" height="20"/><path d="M32,6C17.642,6,6,17.642,6,32c0,13.035,9.603,23.799,22.113,25.679V38.89H21.68v-6.834h6.433v-4.548	c0-7.529,3.668-10.833,9.926-10.833c2.996,0,4.583,0.223,5.332,0.323v5.965h-4.268c-2.656,0-3.584,2.52-3.584,5.358v3.735h7.785	l-1.055,6.834h-6.73v18.843C48.209,56.013,58,45.163,58,32C58,17.642,46.359,6,32,6z" transform="translate(2 2)"/></g><g class="c"><circle class="d" cx="20" cy="20" r="20"/><circle class="a" cx="20" cy="20" r="19.5"/></g></svg>