<svg xmlns="http://www.w3.org/2000/svg" width="536" height="451" viewBox="0 0 536 451"><defs><style>.a{opacity:0.3;}.b{fill:#d9dadb;}</style></defs><g class="a"><g transform="translate(0 0)"><path class="b" d="M61.843,36.547H185.537q25.773,0,43.811,17.936t18.036,43.565v123q0,25.629-18.036,43.56t-43.811,17.937H113.384a29.917,29.917,0,0,0-21.9,8.969A29.561,29.561,0,0,0,82.461,313.3v10.244q0,33.956,24.159,57.975t58.3,24.019h20.613a19.885,19.885,0,0,1,14.5,6.089,19.646,19.646,0,0,1,6.12,14.413v41.005a19.665,19.665,0,0,1-6.12,14.414,19.893,19.893,0,0,1-14.5,6.089H164.923a161.488,161.488,0,0,1-63.943-12.976,162.882,162.882,0,0,1-87.935-87.447A159,159,0,0,1,0,323.543V98.044q0-25.63,18.037-43.562T61.843,36.547Z" transform="translate(288.616 -36.547)"/><path class="b" d="M273.86,54.483q18.034-17.935,43.807-17.936h123.69q25.773,0,43.807,17.936T503.2,98.049v123q0,25.629-18.034,43.56t-43.807,17.937H369.2a29.925,29.925,0,0,0-21.908,8.969,29.592,29.592,0,0,0-9.019,21.784v10.244q0,33.956,24.162,57.975t58.3,24.019h20.617a19.875,19.875,0,0,1,14.494,6.089,19.642,19.642,0,0,1,6.124,14.413v41.005a19.66,19.66,0,0,1-6.124,14.414,19.876,19.876,0,0,1-14.494,6.089H420.739A161.5,161.5,0,0,1,356.8,474.571a162.921,162.921,0,0,1-87.935-87.447,159.007,159.007,0,0,1-13.046-63.581V98.044Q255.822,72.414,273.86,54.483Z" transform="translate(-255.817 -36.547)"/></g></g></svg>